# xmcd CD database file
#
# Track frame offsets:
#	150
#	32616
#	62296
#	93555
#	123824
#	149382
#	173918
#
# Disc length: 2895 seconds
#
# Revision: 0
# Processed by: cddbd v1.5.2PL0 Copyright (c) Steve Scherf et al.
# Submitted via: CDex 1.51
#
DISCID=540b4d07
DTITLE=Eddie Bert - Crosstown [CD2)
DYEAR=1955
DGENRE=Jazz
TTITLE0=Crosstown
TTITLE1=Wishbone
TTITLE2=Bronx Line
TTITLE3=Conversation
TTITLE4=Manhattan Suite
TTITLE5=Steadz Eddie
TTITLE6=Slow Crosstown
EXTD=YEAR: 1955
EXTT0=
EXTT1=
EXTT2=
EXTT3=
EXTT4=
EXTT5=
EXTT6=
PLAYORDER=
